{"title":"Enders Game 2013 RUSS-CAM Eng Audio XviD AAC","uid":9264983,"size":1401141757,"categoryP":"video","categoryS":"movies","magnet":"?xt=urn:btih:61911c3460805c027a50f90ae3f14689ceadc6af&amp;dn=Enders+Game+2013+RUSS-CAM+Eng+Audio+XviD+AAC&amp;tr=udp%3A%2F%2Ftracker.openbittorrent.com%3A80&amp;tr=udp%3A%2F%2Fopen.demonii.com%3A1337&amp;tr=udp%3A%2F%2Ftracker.coppersurfer.tk%3A6969&amp;tr=udp%3A%2F%2Fexodus.desync.com%3A6969","seeders":2,"leechers":0,"uploader":"td4u78","files":-1,"time":1385686716,"description":"Ender's Game (2013)\n\n\nInfo\n\nThis is a resync of the russian CAM going around with an english audio track. There's a couple slight audio sync problems, but it's still pretty good overall. The video can be clear, but dark at times, and there's a flicker on my T.V. playing it over an XBox. Meh, it is what it is!\n\nSeed and Enjoy!\n\n-------------------------------------------------------------------\n\nSynopsis\n\nYoung Ender Wiggin is recruited by the International Military to lead the fight against the Formics, a genocidal alien race which nearly annihilated the human race in a previous invasion.\n\nDirector:\nGavin Hood\nWriters:\nGavin Hood (screenplay), Orson Scott Card (based on the book Ender's Game by)\nStars:\nHarrison Ford, Asa Butterfield, Hailee Steinfeld\n\n-------------------------------------------------------------------\n\nGeneral \n\nComplete name : Enders Game 2013 RUSS-CAM Eng Audio XviD AAC.mp4 \nFormat : MPEG-4 \nFormat profile : Base Media / Version 2 \nCodec ID : mp42 \nFile size : 1.30 GiB \nDuration : 1h 45mn \nOverall bit rate mode : Variable \nOverall bit rate : 1 777 Kbps \n\nVideo ID : 201 \n\nFormat : MPEG-4 Visual \nFormat profile : Advanced Simple@L5 \nFormat settings, BVOP : Yes \nFormat settings, QPel : No \nFormat settings, GMC : No warppoints \nFormat settings, Matrix : Default (MPEG) \nCodec ID : 20 \nDuration : 1h 45mn \nBit rate mode : Variable \nBit rate : 1 646 Kbps \nMaximum bit rate : 11.0 Mbps \nWidth : 720 pixels \nHeight : 304 pixels \nDisplay aspect ratio : 2.35:1 \nFrame rate mode : Variable \nFrame rate : 28.760 fps \nOriginal frame rate : 29.970 fps \nMinimum frame rate : 0.020 fps \nMaximum frame rate : 29.970 fps \nColor space : YUV \nChroma subsampling : 4:2:0 \nBit depth : 8 bits \nScan type : Progressive \nCompression mode : Lossy \nBits/(Pixel*Frame) : 0.261 \nStream size : 1.21 GiB (93%) \nWriting library : XviD 1.2.1 (UTC 2008-12-04) \n\nAudio ID : 101 \n\nFormat : AAC \nFormat/Info : Advanced Audio Codec \nFormat profile : LC \nCodec ID : 40 \nDuration : 1h 45mn \nBit rate mode : Variable \nBit rate : 128 Kbps \nMaximum bit rate : 150 Kbps \nChannel(s) : 2 channels \nChannel positions : Front: L R \nSampling rate : 48.0 KHz \nCompression mode : Lossy \nStream size : 96.2 MiB (7%) \nEncoded date : UTC 2013-11-27 21:43:17 \nTagged date : UTC 2013-11-27 21:43:27","torrent":{"xt":"urn:btih:61911c3460805c027a50f90ae3f14689ceadc6af","amp;dn":"Enders+Game+2013+RUSS-CAM+Eng+Audio+XviD+AAC","amp;tr":["udp%3A%2F%2Ftracker.openbittorrent.com%3A80","udp%3A%2F%2Fopen.demonii.com%3A1337","udp%3A%2F%2Ftracker.coppersurfer.tk%3A6969","udp%3A%2F%2Fexodus.desync.com%3A6969"],"infoHash":"61911c3460805c027a50f90ae3f14689ceadc6af","infoHashBuffer":{"type":"Buffer","data":[97,145,28,52,96,128,92,2,122,80,249,10,227,241,70,137,206,173,198,175]},"announce":[],"urlList":[]}}